{"title":"Sebbe.2010.DVDRip.XviD.AC3.(5.1).-Zen_Bud","uid":5694005,"size":1468656696,"categoryP":"video","categoryS":"movies","magnet":"?xt=urn:btih:63335dcfb089edb03e34f1237682dac806de5dcb&amp;dn=Sebbe.2010.DVDRip.XviD.AC3.%285.1%29.-Zen_Bud&amp;tr=udp%3A%2F%2Ftracker.openbittorrent.com%3A80&amp;tr=udp%3A%2F%2Fopen.demonii.com%3A1337&amp;tr=udp%3A%2F%2Ftracker.coppersurfer.tk%3A6969&amp;tr=udp%3A%2F%2Fexodus.desync.com%3A6969","seeders":3,"leechers":0,"uploader":null,"files":1,"time":1279206896,"description":"General\nComplete name                    : Sebbe.2010.avi\nFormat                           : AVI\nFile size                        : 1.37 GiB\nDuration                         : 1h 19mn\nOverall bit rate                 : 2 462 Kbps\n\nVideo\n\nFormat                           : MPEG-4 Visual\nCodec ID/Hint                    : XviD\nDuration                         : 1h 19mn\nBit rate                         : 2 003 Kbps\nWidth                            : 720 pixels\nHeight                           : 436 pixels\nDisplay aspect ratio             : 2.35:1\nStream size                      : 1.11 GiB (81%)\nWriting library                  : XviD 1.1.2 (UTC 2006-11-01)\n\nAudio\n\nFormat                           : AC-3\nDuration                         : 1h 19mn\nBit rate                         : 448 Kbps\nChannel(s)                       : 6 channels\nChannel positions                : Front: L C R, Side: L R, LFE\nSampling rate                    : 48.0 KHz\nStream size                      : 255 MiB (18%)\n\n &lt;a href=&quot;\nhttp://www.imdb.com/title/tt1548629/&quot; rel=&quot;nofollow&quot; target=&quot;_NEW&quot;&gt;\nhttp://www.imdb.com/title/tt1548629/&lt;/a&gt;","torrent":{"xt":"urn:btih:63335dcfb089edb03e34f1237682dac806de5dcb","amp;dn":"Sebbe.2010.DVDRip.XviD.AC3.%285.1%29.-Zen_Bud","amp;tr":["udp%3A%2F%2Ftracker.openbittorrent.com%3A80","udp%3A%2F%2Fopen.demonii.com%3A1337","udp%3A%2F%2Ftracker.coppersurfer.tk%3A6969","udp%3A%2F%2Fexodus.desync.com%3A6969"],"infoHash":"63335dcfb089edb03e34f1237682dac806de5dcb","infoHashBuffer":{"type":"Buffer","data":[99,51,93,207,176,137,237,176,62,52,241,35,118,130,218,200,6,222,93,203]},"announce":[],"urlList":[]}}